<svg xmlns="http://www.w3.org/2000/svg" viewBox="0 0 48 48"><g data-name="Control Panel"><path fill="#425b72" d="M40,36H37a1,1,0,0,1,0-2h3a1,1,0,0,0,1-1V28a1,1,0,0,1,2,0v5A3,3,0,0,1,40,36Z"/><rect width="36" height="8" x="1" y="39" fill="#5b9ad8"/><path fill="#82bcf4" d="M37,39v6H6a3,3,0,0,1-3-3V39Z"/><rect width="18" height="22" x="1" y="17" fill="#5b9ad8"/><path fill="#82bcf4" d="M19,17V37H6a3,3,0,0,1-3-3V17Z"/><rect width="18" height="22" x="19" y="17" fill="#5b9ad8"/><path fill="#82bcf4" d="M37,17V37H24a3,3,0,0,1-3-3V17Z"/><rect width="36" height="16" x="1" y="1" fill="#5b9ad8"/><rect width="16" height="8" x="11" y="5" fill="#9fdbf3"/><path fill="#b2e5fb" d="M27,5v6H19a6,6,0,0,1-6-6Z"/><path fill="#edebf2" d="M8 44H6a1 1 0 0 1 0-2H8A1 1 0 0 1 8 44zM14 44H12a1 1 0 0 1 0-2h2A1 1 0 0 1 14 44zM20 44H18a1 1 0 0 1 0-2h2A1 1 0 0 1 20 44zM26 44H24a1 1 0 0 1 0-2h2A1 1 0 0 1 26 44zM32 44H30a1 1 0 0 1 0-2h2A1 1 0 0 1 32 44z"/><rect width="10" height="4" x="5" y="21" fill="#9fdbf3"/><path fill="#b2e5fb" d="M15,21v2H9a2,2,0,0,1-2-2Z"/><path fill="#425b72" d="M6 30a1 1 0 1 1 .71-1.71A1 1 0 0 1 6 30zM6 33a1 1 0 1 1 .38-1.92A1 1 0 0 1 6 33zM6 36a1 1 0 1 1 1-1A1 1 0 0 1 6 36zM10 30a1 1 0 1 1 .71-1.71A1 1 0 0 1 10 30zM9.29 31.29a1 1 0 0 1 1.42 1.42A1 1 0 0 1 9.29 31.29zM10 36a1 1 0 0 1-1-1 1 1 0 1 1 1 1zM14 30a1 1 0 1 1 .92-1.38A1 1 0 0 1 14 30zM14 33a1 1 0 0 1-.2-2A1 1 0 1 1 14 33zM14 36a1 1 0 1 1 1-1A1 1 0 0 1 14 36z"/><path fill="#fc6" d="M27,33a2,2,0,1,1-2.82-1.82A2,2,0,0,1,27,33Z"/><path fill="#ffde76" d="M26.82,33.82a2,2,0,0,1-2.64-2.64A2,2,0,0,1,26.82,33.82Z"/><rect width="4" height="4" x="30" y="32" fill="#9dcc6b" rx="1"/><rect width="4" height="4" x="30" y="26" fill="#db5669" rx="1"/><path fill="#f26674" d="M34,27v2a3,3,0,0,1-3-3h2A1,1,0,0,1,34,27Z"/><path fill="#b5e08c" d="M34,33v2a3,3,0,0,1-3-3h2A1,1,0,0,1,34,33Z"/><path fill="#425b72" d="M23 28a1 1 0 1 1 .92-1.38A1 1 0 0 1 23 28zM27 28a1 1 0 0 1-.92-1.38 1 1 0 0 1 1.3-.54A1 1 0 0 1 27 28z"/><path fill="#edebf2" d="M33,23H23a1,1,0,0,1,0-2H33A1,1,0,0,1,33,23Z"/><circle cx="32" cy="7" r="2" fill="#db5669"/><path fill="#db5669" d="M8,7A2,2,0,1,1,5.18,5.18,2,2,0,0,1,8,7Z"/><path fill="#f26674" d="M7.82 7.82A2 2 0 0 1 5.18 5.18 2 2 0 0 1 7.82 7.82zM33.82 7.82a2 2 0 0 1-2.64-2.64A2 2 0 0 1 33.82 7.82z"/><path fill="#edebf2" d="M7 13H5a1 1 0 0 1 0-2H7A1 1 0 0 1 7 13zM33 13H31a1 1 0 0 1 0-2h2A1 1 0 0 1 33 13z"/><rect width="10" height="16" x="37" y="12" fill="#374f68"/><path fill="#425b72" d="M47,12V26H42a3,3,0,0,1-3-3V12Z"/><path fill="#dad7e5" d="M44,18a2,2,0,1,1-2.82-1.82A2,2,0,0,1,44,18Z"/><path fill="#edebf2" d="M43.82 18.82a2 2 0 0 1-2.64-2.64A2 2 0 0 1 43.82 18.82zM43 25H41a1 1 0 0 1 0-2h2A1 1 0 0 1 43 25z"/></g></svg>