<svg xmlns="http://www.w3.org/2000/svg" width="39" height="39" viewBox="0 0 39 39"><path d="M3826.68623,3890 L3800.31477,3890 C3796.83274,3890 3794,3887.16665 3794,3883.68348 L3794,3857.31652 C3794,3853.83335 3796.83274,3851 3800.31477,3851 L3826.68623,3851 C3830.16726,3851 3833,3853.83335 3833,3857.31652 L3833,3883.68448 C3833,3887.16765 3830.16726,3890 3826.68623,3890 Z M3809.74194,3857 C3806.01847,3857 3803,3860.00155 3803,3863.70414 C3803,3867.40674 3806.01847,3870.40828 3809.74194,3870.40828 L3818.25806,3870.40828 C3821.98153,3870.40828 3825,3867.40674 3825,3863.70414 C3825,3860.00155 3821.98153,3857 3818.25806,3857 L3809.74194,3857 Z M3817.97041,3868.32544 C3815.41814,3868.32544 3813.34911,3866.27099 3813.34911,3863.73669 C3813.34911,3861.20239 3815.41814,3859.14793 3817.97041,3859.14793 C3820.52269,3859.14793 3822.59172,3861.20239 3822.59172,3863.73669 C3822.59172,3866.27099 3820.52269,3868.32544 3817.97041,3868.32544 Z M3809.74194,3873.4114 L3818.25806,3873.4114 C3821.19764,3873.4114 3823.58065,3875.78104 3823.58065,3878.70414 C3823.58065,3881.62724 3821.19764,3883.99689 3818.25806,3883.99689 L3809.74194,3883.99689 C3806.80236,3883.99689 3804.41935,3881.62724 3804.41935,3878.70414 C3804.41935,3875.78104 3806.80236,3873.4114 3809.74194,3873.4114 Z M3809.74194,3872 C3806.01847,3872 3803,3875.00155 3803,3878.70414 C3803,3882.40674 3806.01847,3885.40828 3809.74194,3885.40828 L3818.25806,3885.40828 C3821.98153,3885.40828 3825,3882.40674 3825,3878.70414 C3825,3875.00155 3821.98153,3872 3818.25806,3872 L3809.74194,3872 Z M3810,3882.64366 C3812.20914,3882.64366 3814,3880.86541 3814,3878.67183 C3814,3876.47825 3812.20914,3874.7 3810,3874.7 C3807.79086,3874.7 3806,3876.47825 3806,3878.67183 C3806,3880.86541 3807.79086,3882.64366 3810,3882.64366 Z" transform="translate(-3794 -3851)"/></svg>